<mxfile host="app.diagrams.net" modified="2020-05-28T06:01:05.627Z" agent="5.0 (Windows NT 10.0; Win64; x64) AppleWebKit/537.36 (KHTML, like Gecko) Chrome/81.0.4044.138 Safari/537.36" etag="5jrQejxcpMRQcgvlpPqC" version="13.1.5" type="github">
  <diagram id="C5RBs43oDa-KdzZeNtuy" name="Page-1">
    <mxGraphModel dx="1392" dy="772" grid="1" gridSize="10" guides="1" tooltips="1" connect="1" arrows="1" fold="1" page="1" pageScale="1" pageWidth="827" pageHeight="1169" math="0" shadow="0">
      <root>
        <mxCell id="WIyWlLk6GJQsqaUBKTNV-0" />
        <mxCell id="WIyWlLk6GJQsqaUBKTNV-1" parent="WIyWlLk6GJQsqaUBKTNV-0" />
        <mxCell id="nkfNfoPDe_xAIz3V923W-22" value="" style="rounded=0;whiteSpace=wrap;html=1;" vertex="1" parent="WIyWlLk6GJQsqaUBKTNV-1">
          <mxGeometry x="230" y="210" width="200" height="390" as="geometry" />
        </mxCell>
        <mxCell id="nkfNfoPDe_xAIz3V923W-21" value="" style="rounded=0;whiteSpace=wrap;html=1;" vertex="1" parent="WIyWlLk6GJQsqaUBKTNV-1">
          <mxGeometry x="30" y="210" width="200" height="390" as="geometry" />
        </mxCell>
        <mxCell id="nkfNfoPDe_xAIz3V923W-4" style="edgeStyle=orthogonalEdgeStyle;rounded=0;orthogonalLoop=1;jettySize=auto;html=1;exitX=0.5;exitY=1;exitDx=0;exitDy=0;entryX=0.5;entryY=0;entryDx=0;entryDy=0;" edge="1" parent="WIyWlLk6GJQsqaUBKTNV-1" source="WIyWlLk6GJQsqaUBKTNV-3" target="nkfNfoPDe_xAIz3V923W-17">
          <mxGeometry relative="1" as="geometry">
            <mxPoint x="125" y="213" as="targetPoint" />
          </mxGeometry>
        </mxCell>
        <mxCell id="WIyWlLk6GJQsqaUBKTNV-3" value="프로그램 담당 부서 내 권한&amp;nbsp;지정" style="rounded=1;whiteSpace=wrap;html=1;fontSize=12;glass=0;strokeWidth=1;shadow=0;" parent="WIyWlLk6GJQsqaUBKTNV-1" vertex="1">
          <mxGeometry x="30" y="133" width="400" height="40" as="geometry" />
        </mxCell>
        <mxCell id="WIyWlLk6GJQsqaUBKTNV-9" value="Yes" style="edgeStyle=orthogonalEdgeStyle;rounded=0;html=1;jettySize=auto;orthogonalLoop=1;fontSize=11;endArrow=block;endFill=0;endSize=8;strokeWidth=1;shadow=0;labelBackgroundColor=none;exitX=1;exitY=0.5;exitDx=0;exitDy=0;" parent="WIyWlLk6GJQsqaUBKTNV-1" source="nkfNfoPDe_xAIz3V923W-20" target="WIyWlLk6GJQsqaUBKTNV-12" edge="1">
          <mxGeometry y="10" relative="1" as="geometry">
            <mxPoint as="offset" />
            <mxPoint x="200" y="415" as="sourcePoint" />
          </mxGeometry>
        </mxCell>
        <mxCell id="WIyWlLk6GJQsqaUBKTNV-12" value="담당자 지정, 수정, 삭제 기능 부여" style="rounded=1;whiteSpace=wrap;html=1;fontSize=12;glass=0;strokeWidth=1;shadow=0;" parent="WIyWlLk6GJQsqaUBKTNV-1" vertex="1">
          <mxGeometry x="300" y="327" width="110" height="70" as="geometry" />
        </mxCell>
        <mxCell id="nkfNfoPDe_xAIz3V923W-26" value="&lt;span style=&quot;font-size: 12px ; background-color: rgb(248 , 249 , 250)&quot;&gt;담당자 지정 요청&lt;/span&gt;&lt;br style=&quot;font-size: 12px ; background-color: rgb(248 , 249 , 250)&quot;&gt;&lt;span style=&quot;font-size: 12px ; background-color: rgb(248 , 249 , 250)&quot;&gt;수정, 삭제 기능 요청&lt;/span&gt;" style="edgeStyle=orthogonalEdgeStyle;rounded=0;orthogonalLoop=1;jettySize=auto;html=1;exitX=0.5;exitY=1;exitDx=0;exitDy=0;entryX=0.5;entryY=0;entryDx=0;entryDy=0;" edge="1" parent="WIyWlLk6GJQsqaUBKTNV-1" source="nkfNfoPDe_xAIz3V923W-3" target="nkfNfoPDe_xAIz3V923W-20">
          <mxGeometry relative="1" as="geometry" />
        </mxCell>
        <mxCell id="nkfNfoPDe_xAIz3V923W-3" value="&lt;span&gt;팀원&lt;br&gt;&lt;/span&gt;" style="rounded=1;whiteSpace=wrap;html=1;fontSize=12;glass=0;strokeWidth=1;shadow=0;" vertex="1" parent="WIyWlLk6GJQsqaUBKTNV-1">
          <mxGeometry x="250" y="230" width="160" height="40" as="geometry" />
        </mxCell>
        <mxCell id="nkfNfoPDe_xAIz3V923W-17" value="팀장 - 권한 지정 기능 부여&amp;nbsp;" style="rounded=1;whiteSpace=wrap;html=1;fontSize=12;glass=0;strokeWidth=1;shadow=0;" vertex="1" parent="WIyWlLk6GJQsqaUBKTNV-1">
          <mxGeometry x="50" y="230" width="160" height="40" as="geometry" />
        </mxCell>
        <mxCell id="nkfNfoPDe_xAIz3V923W-18" value="No" style="edgeStyle=orthogonalEdgeStyle;rounded=0;html=1;jettySize=auto;orthogonalLoop=1;fontSize=11;endArrow=block;endFill=0;endSize=8;strokeWidth=1;shadow=0;labelBackgroundColor=none;exitX=0.5;exitY=1;exitDx=0;exitDy=0;" edge="1" parent="WIyWlLk6GJQsqaUBKTNV-1" source="nkfNfoPDe_xAIz3V923W-20" target="nkfNfoPDe_xAIz3V923W-19">
          <mxGeometry y="10" relative="1" as="geometry">
            <mxPoint as="offset" />
          </mxGeometry>
        </mxCell>
        <mxCell id="nkfNfoPDe_xAIz3V923W-19" value="일반 열람 권한 부여" style="rounded=1;whiteSpace=wrap;html=1;fontSize=12;glass=0;strokeWidth=1;shadow=0;" vertex="1" parent="WIyWlLk6GJQsqaUBKTNV-1">
          <mxGeometry x="50" y="440" width="150" height="40" as="geometry" />
        </mxCell>
        <mxCell id="nkfNfoPDe_xAIz3V923W-20" value="담당자?" style="rhombus;whiteSpace=wrap;html=1;shadow=0;fontFamily=Helvetica;fontSize=12;align=center;strokeWidth=1;spacing=6;spacingTop=-4;" vertex="1" parent="WIyWlLk6GJQsqaUBKTNV-1">
          <mxGeometry x="50" y="327" width="150" height="70" as="geometry" />
        </mxCell>
        <mxCell id="nkfNfoPDe_xAIz3V923W-23" style="edgeStyle=orthogonalEdgeStyle;rounded=0;orthogonalLoop=1;jettySize=auto;html=1;exitX=0.5;exitY=1;exitDx=0;exitDy=0;entryX=0.5;entryY=0;entryDx=0;entryDy=0;" edge="1" parent="WIyWlLk6GJQsqaUBKTNV-1" source="WIyWlLk6GJQsqaUBKTNV-3" target="nkfNfoPDe_xAIz3V923W-3">
          <mxGeometry relative="1" as="geometry">
            <mxPoint x="125" y="213" as="targetPoint" />
          </mxGeometry>
        </mxCell>
        <mxCell id="nkfNfoPDe_xAIz3V923W-30" value="" style="rounded=0;whiteSpace=wrap;html=1;" vertex="1" parent="WIyWlLk6GJQsqaUBKTNV-1">
          <mxGeometry x="680" y="210" width="200" height="390" as="geometry" />
        </mxCell>
        <mxCell id="nkfNfoPDe_xAIz3V923W-31" value="" style="rounded=0;whiteSpace=wrap;html=1;" vertex="1" parent="WIyWlLk6GJQsqaUBKTNV-1">
          <mxGeometry x="480" y="210" width="200" height="390" as="geometry" />
        </mxCell>
        <mxCell id="nkfNfoPDe_xAIz3V923W-32" style="edgeStyle=orthogonalEdgeStyle;rounded=0;orthogonalLoop=1;jettySize=auto;html=1;exitX=0.5;exitY=1;exitDx=0;exitDy=0;entryX=0.5;entryY=0;entryDx=0;entryDy=0;" edge="1" parent="WIyWlLk6GJQsqaUBKTNV-1" source="nkfNfoPDe_xAIz3V923W-33" target="nkfNfoPDe_xAIz3V923W-38">
          <mxGeometry relative="1" as="geometry">
            <mxPoint x="575" y="213" as="targetPoint" />
          </mxGeometry>
        </mxCell>
        <mxCell id="nkfNfoPDe_xAIz3V923W-33" value="타 부서 열람 권한 요청" style="rounded=1;whiteSpace=wrap;html=1;fontSize=12;glass=0;strokeWidth=1;shadow=0;" vertex="1" parent="WIyWlLk6GJQsqaUBKTNV-1">
          <mxGeometry x="480" y="133" width="400" height="40" as="geometry" />
        </mxCell>
        <mxCell id="nkfNfoPDe_xAIz3V923W-34" value="Yes" style="edgeStyle=orthogonalEdgeStyle;rounded=0;html=1;jettySize=auto;orthogonalLoop=1;fontSize=11;endArrow=block;endFill=0;endSize=8;strokeWidth=1;shadow=0;labelBackgroundColor=none;exitX=1;exitY=0.5;exitDx=0;exitDy=0;" edge="1" parent="WIyWlLk6GJQsqaUBKTNV-1" source="nkfNfoPDe_xAIz3V923W-41" target="nkfNfoPDe_xAIz3V923W-35">
          <mxGeometry y="10" relative="1" as="geometry">
            <mxPoint as="offset" />
            <mxPoint x="650" y="415" as="sourcePoint" />
          </mxGeometry>
        </mxCell>
        <mxCell id="nkfNfoPDe_xAIz3V923W-35" value="일반 열람 권한 부여" style="rounded=1;whiteSpace=wrap;html=1;fontSize=12;glass=0;strokeWidth=1;shadow=0;" vertex="1" parent="WIyWlLk6GJQsqaUBKTNV-1">
          <mxGeometry x="750" y="327" width="110" height="70" as="geometry" />
        </mxCell>
        <mxCell id="nkfNfoPDe_xAIz3V923W-36" value="&lt;span style=&quot;font-size: 12px ; background-color: rgb(248 , 249 , 250)&quot;&gt;열람 권한 요청&lt;/span&gt;" style="edgeStyle=orthogonalEdgeStyle;rounded=0;orthogonalLoop=1;jettySize=auto;html=1;exitX=0.5;exitY=1;exitDx=0;exitDy=0;entryX=0.5;entryY=0;entryDx=0;entryDy=0;" edge="1" parent="WIyWlLk6GJQsqaUBKTNV-1" source="nkfNfoPDe_xAIz3V923W-37" target="nkfNfoPDe_xAIz3V923W-41">
          <mxGeometry relative="1" as="geometry" />
        </mxCell>
        <mxCell id="nkfNfoPDe_xAIz3V923W-37" value="&lt;span&gt;타 부서 인원&lt;br&gt;&lt;/span&gt;" style="rounded=1;whiteSpace=wrap;html=1;fontSize=12;glass=0;strokeWidth=1;shadow=0;" vertex="1" parent="WIyWlLk6GJQsqaUBKTNV-1">
          <mxGeometry x="700" y="230" width="160" height="40" as="geometry" />
        </mxCell>
        <mxCell id="nkfNfoPDe_xAIz3V923W-38" value="팀장 - 권한 지정 기능 부여&amp;nbsp;" style="rounded=1;whiteSpace=wrap;html=1;fontSize=12;glass=0;strokeWidth=1;shadow=0;" vertex="1" parent="WIyWlLk6GJQsqaUBKTNV-1">
          <mxGeometry x="500" y="230" width="160" height="40" as="geometry" />
        </mxCell>
        <mxCell id="nkfNfoPDe_xAIz3V923W-39" value="No" style="edgeStyle=orthogonalEdgeStyle;rounded=0;html=1;jettySize=auto;orthogonalLoop=1;fontSize=11;endArrow=block;endFill=0;endSize=8;strokeWidth=1;shadow=0;labelBackgroundColor=none;exitX=0.5;exitY=1;exitDx=0;exitDy=0;" edge="1" parent="WIyWlLk6GJQsqaUBKTNV-1" source="nkfNfoPDe_xAIz3V923W-41" target="nkfNfoPDe_xAIz3V923W-40">
          <mxGeometry y="10" relative="1" as="geometry">
            <mxPoint as="offset" />
          </mxGeometry>
        </mxCell>
        <mxCell id="nkfNfoPDe_xAIz3V923W-40" value="반려" style="rounded=1;whiteSpace=wrap;html=1;fontSize=12;glass=0;strokeWidth=1;shadow=0;" vertex="1" parent="WIyWlLk6GJQsqaUBKTNV-1">
          <mxGeometry x="500" y="440" width="150" height="40" as="geometry" />
        </mxCell>
        <mxCell id="nkfNfoPDe_xAIz3V923W-41" value="열람 여부 판단" style="rhombus;whiteSpace=wrap;html=1;shadow=0;fontFamily=Helvetica;fontSize=12;align=center;strokeWidth=1;spacing=6;spacingTop=-4;" vertex="1" parent="WIyWlLk6GJQsqaUBKTNV-1">
          <mxGeometry x="500" y="327" width="150" height="70" as="geometry" />
        </mxCell>
        <mxCell id="nkfNfoPDe_xAIz3V923W-42" style="edgeStyle=orthogonalEdgeStyle;rounded=0;orthogonalLoop=1;jettySize=auto;html=1;exitX=0.5;exitY=1;exitDx=0;exitDy=0;entryX=0.5;entryY=0;entryDx=0;entryDy=0;" edge="1" parent="WIyWlLk6GJQsqaUBKTNV-1" source="nkfNfoPDe_xAIz3V923W-33" target="nkfNfoPDe_xAIz3V923W-37">
          <mxGeometry relative="1" as="geometry">
            <mxPoint x="575" y="213" as="targetPoint" />
          </mxGeometry>
        </mxCell>
      </root>
    </mxGraphModel>
  </diagram>
</mxfile>
